<svg width="20" height="24" viewBox="0 0 20 24" fill="none" xmlns="http://www.w3.org/2000/svg">
<path id="Shape" fill-rule="evenodd" clip-rule="evenodd" d="M14.949 16.132H17.281C16.189 17.86 13.676 19.77 11 19.984V15.888C12.492 15.508 14.027 14.586 15.245 12.925L13.632 11.742C12.854 12.804 11.921 13.453 11 13.798V9.993L11.354 9.905L11.3579 9.90407C13.8287 9.30636 16.3813 8.68885 16.967 6.474C17.525 4.367 16.015 2.814 13.906 2.155C14.068 2.911 14.015 3.533 13.783 4.24C14.585 4.587 15.256 5.114 15.033 5.963C14.758 7.005 12.864 7.481 11 7.933V7.897C11 6.68766 11.5121 6.03162 12.018 5.38344C12.5119 4.75064 13 4.12533 13 3C13 1.346 11.654 0 10 0C8.346 0 7 1.346 7 3C7 4.13471 7.48807 4.75525 7.98199 5.38323C8.48792 6.02647 9 6.67753 9 7.897V8.453C6.934 9.07 5.097 10.02 4.961 12.251C4.845 14.144 6.301 15.896 9 16.069V20C6.361 19.82 3.867 17.947 2.719 16.132H5.051L0 13V18.912L1.269 17.112C2.89172 19.8163 4.8661 20.8251 6.69393 21.7591C7.90964 22.3802 9.06052 22.9683 10 24C10.9394 22.9684 12.0901 22.3803 13.3057 21.7592C15.1336 20.8251 17.1082 19.8161 18.731 17.111L20 18.911V13L14.949 16.132ZM10 2C10.552 2 11 2.449 11 3C11 3.551 10.552 4 10 4C9.448 4 9 3.551 9 3C9 2.449 9.448 2 10 2ZM9 10.56C7.766 10.99 7.01 11.508 6.957 12.374C6.913 13.091 7.461 13.917 9 14.076V10.56Z" fill="#CDA72C"/>
</svg>
