<svg width="48" height="48" viewBox="0 0 48 48" fill="none" xmlns="http://www.w3.org/2000/svg">
<path id="Shape" fill-rule="evenodd" clip-rule="evenodd" d="M18.652 32L20.232 34.214C19.528 34.694 18.936 35.302 18.484 36H11C4.926 36 0 31.074 0 25C0 19.596 3.902 15.11 9.042 14.184C9.466 6.282 15.988 0 24 0C32.012 0 38.534 6.282 38.958 14.182C44.098 15.108 48 19.594 48 24.998C48 26.244 47.782 27.436 47.4 28.554C47.078 27.976 46.714 27.382 46.276 26.768C45.654 25.894 44.892 24.974 43.954 24.206C43.492 18.926 38.462 17.472 35.134 17.56C35.782 9.594 30.906 4 24 4C17.282 4 12.532 9.124 12.866 17.56C8.958 17.334 4 19.406 4 25C4 28.86 7.14 32 11 32H18.652ZM17.586 19.902C18.262 19.42 19.024 19.196 19.774 19.196C21.37 19.196 22.904 20.21 23.41 21.902C22.762 21.404 22.006 21.162 21.242 21.162C20.47 21.162 19.69 21.412 19.01 21.896C17.656 22.86 17.058 24.502 17.578 26.06C15.478 24.554 15.468 21.414 17.586 19.902ZM24.4249 41.669L24.4249 41.669C26.4981 42.3388 31.3191 43.8965 36.83 48L48 40.034C46.5497 37.9997 46.0253 36.2714 45.5017 34.5457C44.9798 32.8254 44.4587 31.1077 43.022 29.092C41.57 27.058 40.578 26.504 39.332 26.504C38.892 26.504 38.42 26.574 37.884 26.672L38.898 28.092C39.338 28.708 38.794 29.354 38.228 29.354C38.006 29.354 37.778 29.254 37.606 29.012L36.702 27.744C36.404 27.324 35.988 27.182 35.51 27.182C35.0203 27.182 34.4672 27.3311 33.91 27.4812C33.682 27.5427 33.4533 27.6043 33.228 27.656L34.458 29.38C34.894 29.994 34.352 30.642 33.786 30.642C33.564 30.642 33.338 30.542 33.166 30.3L32.1 28.806C31.804 28.39 31.394 28.246 30.928 28.246C30.4166 28.246 29.8351 28.4185 29.2545 28.5908L29.2545 28.5908L29.2544 28.5908C29.0199 28.6604 28.7856 28.7299 28.556 28.788L29.856 30.612C30.296 31.228 29.752 31.874 29.184 31.874C28.962 31.874 28.734 31.774 28.562 31.534L23.286 24.148C22.824 23.498 22.202 23.228 21.59 23.228C20.042 23.228 18.542 24.964 19.756 26.668L27.546 37.59C26.71 37.282 25.242 37 24.282 37C21.322 37.002 20.182 40.25 23.914 41.502C24.0588 41.5507 24.2296 41.6059 24.4249 41.669Z" fill="white"/>
</svg>
