<svg width="48" height="48" viewBox="0 0 48 48" fill="none" xmlns="http://www.w3.org/2000/svg">
<path id="Shape" fill-rule="evenodd" clip-rule="evenodd" d="M48 26.626C48 30.156 46.03 34.608 41.722 36.438C37.622 42.986 31.772 48 24 48C16.502 48 10.284 42.836 6.276 36.438C1.97 34.606 0 30.154 0 26.626C0 22.636 1.622 19.078 5.366 18.708L5.426 18.652L5.432 18.612C4.932 14.722 4.756 8.772 6.87 6.518C8.006 5.308 9.304 4.84 10.964 5.388C13.552 1.858 17.872 0 23.708 0C32.9673 0 36.7851 4.80003 40.0277 8.87683L40.062 8.92C41.848 11.166 44 13.416 48 13.292C46.382 14.808 44.442 16 42.336 16.882C42.438 17.484 42.522 18.09 42.58 18.696C46.28 19.026 48 22.506 48 26.626ZM17.5 22C16.12 22 15 23.344 15 25C15 26.656 16.12 28 17.5 28C18.88 28 20 26.656 20 25C20 23.344 18.88 22 17.5 22ZM33 25C33 26.656 31.88 28 30.5 28C29.12 28 28 26.656 28 25C28 23.344 29.12 22 30.5 22C31.88 22 33 23.344 33 25ZM19.8762 33.184C20.8769 32.2009 21.7542 31.3391 24 32.714C26.2455 31.3402 27.1229 32.2022 28.1234 33.1852C29.2393 34.2815 30.5085 35.5284 34 33.992C33 38.016 26.988 38.698 24 36.274C21.012 38.698 15 38.016 14 33.992C17.4911 35.5272 18.7604 34.2803 19.8762 33.184ZM41.498 22.788C41.78 22.662 42.37 22.588 42.84 22.894C44.84 24.19 44.63 31.26 39.734 32.918C39.288 33.07 38.908 33.374 38.662 33.778C35.248 39.432 30.636 44 24 44C17.368 44 12.754 39.436 9.338 33.778C9.094 33.374 8.716 33.07 8.268 32.918C3.374 31.262 3.16 24.196 5.16 22.894C5.632 22.588 6.222 22.664 6.504 22.788C7.714 23.326 9.11 22.574 9.284 21.208H9.292C10.05 15.878 13 11.916 17.75 11.166C21 17.638 30.288 19.956 38.486 18.1C38.616 19.046 38.686 20.002 38.686 20.96C38.686 22.404 40.178 23.374 41.498 22.788Z" fill="white"/>
</svg>
